STARTFONT 2.1
COMMENT Created by fdbbdf
FONT ziptop10
SIZE 10 78 78
FONTBOUNDINGBOX 41 50 -14 -34
STARTPROPERTIES 4
Ownership "  Copyright (c) 1984 Adobe Systems, Inc.  /adobe/fonttools/stdfontvec.ps TM12.bits  GUIDELINES -3 0 6 9 DONE  WIDTHERR 10 -153  "
FONT_ASCENT 16
FONT_DESCENT 34
DEFAULT_CHAR 32
ENDPROPERTIES
CHARS 105
STARTCHAR ch-1
ENCODING -1 1
SWIDTH 0 0
DWIDTH 0 0
BBX 15 17 0 -17
BITMAP
0000
0100
0100
0280
0280
0440
0440
0820
0820
1010
1010
2008
2008
4004
4004
8002
8002
ENDCHAR
STARTCHAR ch-2
ENCODING -1 2
SWIDTH 0 0
DWIDTH 0 0
BBX 15 17 0 -17
BITMAP
0000
0000
0000
0000
0000
0100
0100
0280
0440
0440
0820
1010
1010
2008
4004
4004
8002
ENDCHAR
STARTCHAR ch-3
ENCODING -1 3
SWIDTH 0 0
DWIDTH 0 0
BBX 15 17 -14 -1
BITMAP
0000
0000
0000
0000
0000
0000
0000
0000
0000
0100
0280
0440
0820
1010
2008
4004
8002
ENDCHAR
STARTCHAR ch-4
ENCODING -1 4
SWIDTH 0 0
DWIDTH 0 0
BBX 27 10 0 -10
BITMAP
8a88a880
54504540
22a28220
41151400
8208a8a0
14104540
a8a08220
45450400
822a2820
04115140
ENDCHAR
STARTCHAR ch-5
ENCODING -1 5
SWIDTH 0 0
DWIDTH 0 0
BBX 26 34 0 -34
BITMAP
08808280
15004440
a2002800
41001000
80822000
00454000
00288000
00104000
82202080
45401140
28800a00
10400400
20208800
40115000
800a2000
40041000
20880800
11500440
0a200280
04100100
88082200
50045400
20028800
10010400
08220200
04540100
02880080
01040040
22020880
54011500
8800a200
04004100
02088080
01150040
ENDCHAR
STARTCHAR ch-6
ENCODING -1 6
SWIDTH 0 0
DWIDTH 0 0
BBX 4 4 0 -4
BITMAP
8000
8000
5000
2000
ENDCHAR
STARTCHAR ch-7
ENCODING -1 7
SWIDTH 0 0
DWIDTH 0 0
BBX 8 7 0 -7
BITMAP
8000
8000
8000
4100
4100
2200
1c00
ENDCHAR
STARTCHAR ch-8
ENCODING -1 8
SWIDTH 0 0
DWIDTH 0 0
BBX 16 16 0 -16
BITMAP
9080
6900
4600
8220
0151
008a
0104
0202
0401
8800
5000
2000
4008
8014
0022
0041
ENDCHAR
STARTCHAR ch-9
ENCODING -1 9
SWIDTH 0 0
DWIDTH 0 0
BBX 16 16 0 -16
BITMAP
8f8f
8f8f
f8f8
f8f8
8f8f
8f8f
f8f8
f8f8
8f8f
8f8f
f8f8
f8f8
8f8f
8f8f
f8f8
f8f8
ENDCHAR
STARTCHAR ch-10
ENCODING -1 10
SWIDTH 0 0
DWIDTH 0 0
BBX 16 16 0 -16
BITMAP
ff80
ff80
80ff
80ff
ff80
ff80
80ff
80ff
ff80
ff80
80ff
80ff
ff80
ff80
80ff
80ff
ENDCHAR
STARTCHAR sp
ENCODING -1 32
SWIDTH 0 0
DWIDTH 3 0
BBX 0 0 0 0
BITMAP
ENDCHAR
STARTCHAR !
ENCODING -1 33
SWIDTH 0 0
DWIDTH 3 0
BBX 1 9 1 -1
BITMAP
8000
8000
8000
8000
8000
8000
8000
0000
8000
ENDCHAR
STARTCHAR "
ENCODING -1 34
SWIDTH 0 0
DWIDTH 5 0
BBX 3 3 1 5
BITMAP
a000
a000
a000
ENDCHAR
STARTCHAR #
ENCODING -1 35
SWIDTH 0 0
DWIDTH 6 0
BBX 5 8 1 -1
BITMAP
5000
5000
f800
5000
5000
f800
5000
5000
ENDCHAR
STARTCHAR $
ENCODING -1 36
SWIDTH 0 0
DWIDTH 6 0
BBX 5 11 1 -2
BITMAP
2000
7000
a800
a000
6000
3000
2800
2800
a800
7000
2000
ENDCHAR
STARTCHAR %
ENCODING -1 37
SWIDTH 0 0
DWIDTH 9 0
BBX 8 9 1 -1
BITMAP
6300
9e00
9400
6800
1000
3600
2900
4900
4600
ENDCHAR
STARTCHAR &
ENCODING -1 38
SWIDTH 0 0
DWIDTH 10 0
BBX 9 9 0 -1
BITMAP
1800
2400
2400
1b80
7900
ce00
8400
ce80
7b00
ENDCHAR
STARTCHAR '
ENCODING -1 39
SWIDTH 0 0
DWIDTH 4 0
BBX 2 3 1 5
BITMAP
c000
4000
8000
ENDCHAR
STARTCHAR (
ENCODING -1 40
SWIDTH 0 0
DWIDTH 5 0
BBX 3 12 1 -4
BITMAP
2000
4000
4000
8000
8000
8000
8000
8000
8000
4000
4000
2000
ENDCHAR
STARTCHAR )
ENCODING -1 41
SWIDTH 0 0
DWIDTH 5 0
BBX 3 12 1 -4
BITMAP
8000
4000
4000
2000
2000
2000
2000
2000
2000
4000
4000
8000
ENDCHAR
STARTCHAR *
ENCODING -1 42
SWIDTH 0 0
DWIDTH 6 0
BBX 5 5 0 3
BITMAP
2000
a800
7000
a800
2000
ENDCHAR
STARTCHAR +
ENCODING -1 43
SWIDTH 0 0
DWIDTH 7 0
BBX 5 5 1 0
BITMAP
2000
2000
f800
2000
2000
ENDCHAR
STARTCHAR ,
ENCODING -1 44
SWIDTH 0 0
DWIDTH 3 0
BBX 2 3 0 -3
BITMAP
4000
4000
8000
ENDCHAR
STARTCHAR -
ENCODING -1 45
SWIDTH 0 0
DWIDTH 6 0
BBX 4 1 1 2
BITMAP
f000
ENDCHAR
STARTCHAR .
ENCODING -1 46
SWIDTH 0 0
DWIDTH 3 0
BBX 1 1 1 -1
BITMAP
8000
ENDCHAR
STARTCHAR /
ENCODING -1 47
SWIDTH 0 0
DWIDTH 3 0
BBX 3 9 0 -1
BITMAP
2000
2000
2000
4000
4000
4000
8000
8000
8000
ENDCHAR
STARTCHAR 0
ENCODING -1 48
SWIDTH 0 0
DWIDTH 6 0
BBX 5 9 1 -1
BITMAP
7000
d800
8800
8800
8800
8800
8800
d800
7000
ENDCHAR
STARTCHAR 1
ENCODING -1 49
SWIDTH 0 0
DWIDTH 6 0
BBX 4 9 1 -1
BITMAP
2000
6000
a000
2000
2000
2000
2000
2000
7000
ENDCHAR
STARTCHAR 2
ENCODING -1 50
SWIDTH 0 0
DWIDTH 6 0
BBX 5 9 1 -1
BITMAP
7000
8800
0800
0800
1000
2000
4000
8800
f800
ENDCHAR
STARTCHAR 3
ENCODING -1 51
SWIDTH 0 0
DWIDTH 6 0
BBX 5 9 1 -1
BITMAP
7000
8800
0800
1000
7000
0800
0800
8800
7000
ENDCHAR
STARTCHAR 4
ENCODING -1 52
SWIDTH 0 0
DWIDTH 6 0
BBX 5 9 1 -1
BITMAP
1000
3000
3000
5000
5000
9000
f800
1000
1000
ENDCHAR
STARTCHAR 5
ENCODING -1 53
SWIDTH 0 0
DWIDTH 6 0
BBX 5 9 1 -1
BITMAP
7800
4000
4000
7000
1800
0800
0800
9800
7000
ENDCHAR
STARTCHAR 6
ENCODING -1 54
SWIDTH 0 0
DWIDTH 6 0
BBX 5 9 1 -1
BITMAP
1800
6000
4000
f000
9800
8800
8800
c800
7000
ENDCHAR
STARTCHAR 7
ENCODING -1 55
SWIDTH 0 0
DWIDTH 6 0
BBX 5 9 1 -1
BITMAP
f800
8800
1000
1000
2000
2000
4000
4000
4000
ENDCHAR
STARTCHAR 8
ENCODING -1 56
SWIDTH 0 0
DWIDTH 6 0
BBX 5 9 1 -1
BITMAP
7000
8800
8800
c800
7000
9800
8800
8800
7000
ENDCHAR
STARTCHAR 9
ENCODING -1 57
SWIDTH 0 0
DWIDTH 6 0
BBX 5 9 1 -1
BITMAP
7000
9800
8800
8800
c800
7800
1000
3000
c000
ENDCHAR
STARTCHAR :
ENCODING -1 58
SWIDTH 0 0
DWIDTH 3 0
BBX 1 6 1 -1
BITMAP
8000
0000
0000
0000
0000
8000
ENDCHAR
STARTCHAR ;
ENCODING -1 59
SWIDTH 0 0
DWIDTH 3 0
BBX 2 8 0 -3
BITMAP
4000
0000
0000
0000
0000
4000
4000
8000
ENDCHAR
STARTCHAR <
ENCODING -1 60
SWIDTH 0 0
DWIDTH 8 0
BBX 6 5 1 0
BITMAP
0c00
3000
c000
3000
0c00
ENDCHAR
STARTCHAR =
ENCODING -1 61
SWIDTH 0 0
DWIDTH 7 0
BBX 5 3 1 1
BITMAP
f800
0000
f800
ENDCHAR
STARTCHAR >
ENCODING -1 62
SWIDTH 0 0
DWIDTH 8 0
BBX 6 5 1 0
BITMAP
c000
3000
0c00
3000
c000
ENDCHAR
STARTCHAR ?
ENCODING -1 63
SWIDTH 0 0
DWIDTH 5 0
BBX 4 9 0 -1
BITMAP
6000
9000
1000
2000
4000
4000
4000
0000
4000
ENDCHAR
STARTCHAR @
ENCODING -1 64
SWIDTH 0 0
DWIDTH 11 0
BBX 10 11 1 -3
BITMAP
0f00
3080
6040
4d40
9240
a240
a480
a480
9b00
4000
3e00
ENDCHAR
STARTCHAR A
ENCODING -1 65
SWIDTH 0 0
DWIDTH 0 0
BBX 9 12 0 -1
BITMAP
0000
0000
0800
0800
1400
1400
2200
2200
4100
4100
8080
8080
ENDCHAR
STARTCHAR B
ENCODING -1 66
SWIDTH 0 0
DWIDTH 0 0
BBX 9 12 0 -1
BITMAP
0000
0000
0000
0000
0000
0800
1400
1400
2200
4100
4100
8080
ENDCHAR
STARTCHAR C
ENCODING -1 67
SWIDTH 0 0
DWIDTH 0 0
BBX 9 12 0 -1
BITMAP
0000
0000
0000
0000
0000
0000
0000
0800
1400
2200
4100
8080
ENDCHAR
STARTCHAR D
ENCODING -1 68
SWIDTH 0 0
DWIDTH 9 0
BBX 8 9 0 -1
BITMAP
fc00
4600
4200
4100
4100
4100
4200
4600
fc00
ENDCHAR
STARTCHAR E
ENCODING -1 69
SWIDTH 0 0
DWIDTH 8 0
BBX 7 9 0 -1
BITMAP
fe00
4200
4000
4400
7c00
4400
4000
4200
fe00
ENDCHAR
STARTCHAR F
ENCODING -1 70
SWIDTH 0 0
DWIDTH 8 0
BBX 7 9 0 -1
BITMAP
fe00
4200
4000
4400
7c00
4400
4000
4000
f000
ENDCHAR
STARTCHAR G
ENCODING -1 71
SWIDTH 0 0
DWIDTH 9 0
BBX 8 9 0 -1
BITMAP
3a00
6600
4200
8000
8700
8200
4200
6600
3c00
ENDCHAR
STARTCHAR H
ENCODING -1 72
SWIDTH 0 0
DWIDTH 9 0
BBX 8 9 0 -1
BITMAP
e700
4200
4200
4200
7e00
4200
4200
4200
e700
ENDCHAR
STARTCHAR I
ENCODING -1 73
SWIDTH 0 0
DWIDTH 4 0
BBX 3 9 0 -1
BITMAP
e000
4000
4000
4000
4000
4000
4000
4000
e000
ENDCHAR
STARTCHAR J
ENCODING -1 74
SWIDTH 0 0
DWIDTH 4 0
BBX 4 9 0 -1
BITMAP
7000
2000
2000
2000
2000
2000
2000
a000
c000
ENDCHAR
STARTCHAR K
ENCODING -1 75
SWIDTH 0 0
DWIDTH 8 0
BBX 8 9 0 -1
BITMAP
ee00
4400
4800
5000
7000
5800
4c00
4600
e700
ENDCHAR
STARTCHAR L
ENCODING -1 76
SWIDTH 0 0
DWIDTH 7 0
BBX 6 9 0 -1
BITMAP
e000
4000
4000
4000
4000
4000
4000
4400
fc00
ENDCHAR
STARTCHAR M
ENCODING -1 77
SWIDTH 0 0
DWIDTH 11 0
BBX 11 9 0 -1
BITMAP
c060
60c0
60c0
5140
5140
4a40
4a40
4440
e4e0
ENDCHAR
STARTCHAR N
ENCODING -1 78
SWIDTH 0 0
DWIDTH 9 0
BBX 9 9 0 -1
BITMAP
c380
6100
6100
5100
4900
4900
4500
4300
e300
ENDCHAR
STARTCHAR O
ENCODING -1 79
SWIDTH 0 0
DWIDTH 9 0
BBX 8 9 0 -1
BITMAP
3c00
6600
4200
8100
8100
8100
4200
6600
3c00
ENDCHAR
STARTCHAR P
ENCODING -1 80
SWIDTH 0 0
DWIDTH 7 0
BBX 7 9 0 -1
BITMAP
fc00
4600
4200
4600
7c00
4000
4000
4000
e000
ENDCHAR
STARTCHAR Q
ENCODING -1 81
SWIDTH 0 0
DWIDTH 9 0
BBX 8 11 0 -3
BITMAP
3c00
6600
4200
8100
8100
8100
4200
6600
3c00
0c00
0300
ENDCHAR
STARTCHAR R
ENCODING -1 82
SWIDTH 0 0
DWIDTH 8 0
BBX 8 9 0 -1
BITMAP
fc00
4600
4200
4600
7c00
4800
4400
4200
e300
ENDCHAR
STARTCHAR S
ENCODING -1 83
SWIDTH 0 0
DWIDTH 7 0
BBX 6 9 0 -1
BITMAP
7400
8c00
8400
6000
3800
0c00
8400
cc00
b800
ENDCHAR
STARTCHAR T
ENCODING -1 84
SWIDTH 0 0
DWIDTH 7 0
BBX 7 9 0 -1
BITMAP
fe00
9200
1000
1000
1000
1000
1000
1000
3800
ENDCHAR
STARTCHAR U
ENCODING -1 85
SWIDTH 0 0
DWIDTH 8 0
BBX 8 9 0 -1
BITMAP
e700
4200
4200
4200
4200
4200
4200
6600
3c00
ENDCHAR
STARTCHAR V
ENCODING -1 86
SWIDTH 0 0
DWIDTH 9 0
BBX 9 9 0 -1
BITMAP
e380
4100
2200
2200
1400
1400
1c00
0800
0800
ENDCHAR
STARTCHAR W
ENCODING -1 87
SWIDTH 0 0
DWIDTH 12 0
BBX 12 9 0 -1
BITMAP
ee70
4420
6620
2240
3740
1540
1980
0880
0880
ENDCHAR
STARTCHAR X
ENCODING -1 88
SWIDTH 0 0
DWIDTH 8 0
BBX 8 9 0 -1
BITMAP
e700
4200
2400
3800
1800
2c00
2400
4200
e700
ENDCHAR
STARTCHAR Y
ENCODING -1 89
SWIDTH 0 0
DWIDTH 9 0
BBX 9 9 0 -1
BITMAP
e380
6100
2200
1200
1c00
0800
0800
0800
1c00
ENDCHAR
STARTCHAR Z
ENCODING -1 90
SWIDTH 0 0
DWIDTH 8 0
BBX 7 9 0 -1
BITMAP
fe00
8600
0c00
1800
3000
6000
c000
8200
fe00
ENDCHAR
STARTCHAR [
ENCODING -1 91
SWIDTH 0 0
DWIDTH 5 0
BBX 3 12 1 -4
BITMAP
e000
8000
8000
8000
8000
8000
8000
8000
8000
8000
8000
e000
ENDCHAR
STARTCHAR \
ENCODING -1 92
SWIDTH 0 0
DWIDTH 3 0
BBX 3 9 0 -1
BITMAP
8000
8000
8000
4000
4000
4000
2000
2000
2000
ENDCHAR
STARTCHAR ]
ENCODING -1 93
SWIDTH 0 0
DWIDTH 5 0
BBX 3 12 1 -4
BITMAP
e000
2000
2000
2000
2000
2000
2000
2000
2000
2000
2000
e000
ENDCHAR
STARTCHAR ^
ENCODING -1 94
SWIDTH 0 0
DWIDTH 6 0
BBX 5 5 1 3
BITMAP
2000
5000
5000
8800
8800
ENDCHAR
STARTCHAR _
ENCODING -1 95
SWIDTH 0 0
DWIDTH 6 0
BBX 6 1 0 -4
BITMAP
fc00
ENDCHAR
STARTCHAR `
ENCODING -1 96
SWIDTH 0 0
DWIDTH 4 0
BBX 2 3 1 5
BITMAP
4000
8000
c000
ENDCHAR
STARTCHAR a
ENCODING -1 97
SWIDTH 0 0
DWIDTH 6 0
BBX 5 6 1 -1
BITMAP
6000
9000
7000
9000
9000
6800
ENDCHAR
STARTCHAR b
ENCODING -1 98
SWIDTH 0 0
DWIDTH 6 0
BBX 5 9 0 -1
BITMAP
c000
4000
4000
7000
4800
4800
4800
4800
7000
ENDCHAR
STARTCHAR c
ENCODING -1 99
SWIDTH 0 0
DWIDTH 5 0
BBX 4 6 1 -1
BITMAP
6000
9000
8000
8000
9000
6000
ENDCHAR
STARTCHAR d
ENCODING -1 100
SWIDTH 0 0
DWIDTH 6 0
BBX 5 9 1 -1
BITMAP
3000
1000
1000
7000
9000
9000
9000
9000
6800
ENDCHAR
STARTCHAR e
ENCODING -1 101
SWIDTH 0 0
DWIDTH 6 0
BBX 5 6 1 -1
BITMAP
6000
9000
f000
8000
c800
7000
ENDCHAR
STARTCHAR f
ENCODING -1 102
SWIDTH 0 0
DWIDTH 3 0
BBX 4 9 0 -1
BITMAP
3000
4000
4000
e000
4000
4000
4000
4000
4000
ENDCHAR
STARTCHAR g
ENCODING -1 103
SWIDTH 0 0
DWIDTH 6 0
BBX 5 9 1 -4
BITMAP
7800
9000
9000
e000
4000
7000
8800
8800
7000
ENDCHAR
STARTCHAR h
ENCODING -1 104
SWIDTH 0 0
DWIDTH 6 0
BBX 6 9 0 -1
BITMAP
c000
4000
4000
7000
4800
4800
4800
4800
ec00
ENDCHAR
STARTCHAR i
ENCODING -1 105
SWIDTH 0 0
DWIDTH 3 0
BBX 3 9 0 -1
BITMAP
4000
0000
0000
c000
4000
4000
4000
4000
e000
ENDCHAR
STARTCHAR j
ENCODING -1 106
SWIDTH 0 0
DWIDTH 3 0
BBX 3 12 -1 -4
BITMAP
2000
0000
0000
6000
2000
2000
2000
2000
2000
2000
a000
c000
ENDCHAR
STARTCHAR k
ENCODING -1 107
SWIDTH 0 0
DWIDTH 6 0
BBX 6 9 0 -1
BITMAP
c000
4000
4000
4800
5000
6000
5000
4800
4c00
ENDCHAR
STARTCHAR l
ENCODING -1 108
SWIDTH 0 0
DWIDTH 3 0
BBX 3 9 0 -1
BITMAP
c000
4000
4000
4000
4000
4000
4000
4000
e000
ENDCHAR
STARTCHAR m
ENCODING -1 109
SWIDTH 0 0
DWIDTH 9 0
BBX 9 6 0 -1
BITMAP
b600
4900
4900
4900
4900
ed80
ENDCHAR
STARTCHAR n
ENCODING -1 110
SWIDTH 0 0
DWIDTH 6 0
BBX 6 6 0 -1
BITMAP
b000
4800
4800
4800
4800
ec00
ENDCHAR
STARTCHAR o
ENCODING -1 111
SWIDTH 0 0
DWIDTH 6 0
BBX 4 6 1 -1
BITMAP
6000
9000
9000
9000
9000
6000
ENDCHAR
STARTCHAR p
ENCODING -1 112
SWIDTH 0 0
DWIDTH 6 0
BBX 5 9 0 -4
BITMAP
f000
4800
4800
4800
4800
7000
4000
4000
e000
ENDCHAR
STARTCHAR q
ENCODING -1 113
SWIDTH 0 0
DWIDTH 6 0
BBX 5 9 1 -4
BITMAP
7000
9000
9000
9000
9000
7000
1000
1000
3800
ENDCHAR
STARTCHAR r
ENCODING -1 114
SWIDTH 0 0
DWIDTH 4 0
BBX 4 6 0 -1
BITMAP
b000
6000
4000
4000
4000
e000
ENDCHAR
STARTCHAR s
ENCODING -1 115
SWIDTH 0 0
DWIDTH 6 0
BBX 4 6 1 -1
BITMAP
7000
9000
c000
3000
9000
e000
ENDCHAR
STARTCHAR t
ENCODING -1 116
SWIDTH 0 0
DWIDTH 4 0
BBX 4 7 0 -1
BITMAP
4000
f000
4000
4000
4000
4000
3000
ENDCHAR
STARTCHAR u
ENCODING -1 117
SWIDTH 0 0
DWIDTH 6 0
BBX 6 6 0 -1
BITMAP
d800
4800
4800
4800
4800
3400
ENDCHAR
STARTCHAR v
ENCODING -1 118
SWIDTH 0 0
DWIDTH 6 0
BBX 6 6 0 -1
BITMAP
cc00
4800
5800
5000
3000
2000
ENDCHAR
STARTCHAR w
ENCODING -1 119
SWIDTH 0 0
DWIDTH 9 0
BBX 9 6 0 -1
BITMAP
ed80
4900
6b00
2a00
3400
2400
ENDCHAR
STARTCHAR x
ENCODING -1 120
SWIDTH 0 0
DWIDTH 6 0
BBX 5 6 1 -1
BITMAP
d800
5000
2000
2000
5000
d800
ENDCHAR
STARTCHAR y
ENCODING -1 121
SWIDTH 0 0
DWIDTH 6 0
BBX 6 9 0 -4
BITMAP
cc00
4800
5800
5000
3000
2000
2000
4000
c000
ENDCHAR
STARTCHAR z
ENCODING -1 122
SWIDTH 0 0
DWIDTH 6 0
BBX 4 6 1 -1
BITMAP
f000
9000
2000
4000
9000
f000
ENDCHAR
STARTCHAR {
ENCODING -1 123
SWIDTH 0 0
DWIDTH 6 0
BBX 4 12 1 -4
BITMAP
3000
4000
4000
4000
4000
8000
4000
4000
4000
4000
4000
3000
ENDCHAR
STARTCHAR |
ENCODING -1 124
SWIDTH 0 0
DWIDTH 3 0
BBX 1 12 1 -4
BITMAP
8000
8000
8000
8000
8000
8000
8000
8000
8000
8000
8000
8000
ENDCHAR
STARTCHAR }
ENCODING -1 125
SWIDTH 0 0
DWIDTH 6 0
BBX 4 12 1 -4
BITMAP
c000
2000
2000
2000
2000
1000
2000
2000
2000
2000
2000
c000
ENDCHAR
STARTCHAR ~
ENCODING -1 126
SWIDTH 0 0
DWIDTH 7 0
BBX 6 2 1 2
BITMAP
6400
9800
ENDCHAR
ENDFONT
